Patient4_TMGait_0pt3_02_left_29_EMG.mot
version=1
nRows=30
nColumns=33
inDegrees=no
endheader
time	1LAddLong	2LGlutMax	3LGlutMed	4LIliopsoas	5LSemiMemb	6LBicFemLong	7LRecFem	8LVastMed	9LVastLat	10LGasMed	11LTibAnt	12lTibPost	13LPeroneusLong	14LSol	15LExtDigLong	16LFlexDigLong	17RAddLong	18RGlutMax	19RGlutMed	20RIliopsoas	21RSemiMemb	22RBicFemLong	23RRecFem	24RVastMed	25RVastLat	26RGasMed	27RTibAnt	28RTibPost	29RPeroneusLong	30RSol	31RExtDigLong	32RFlexDigLong
58.793	0.002136	0.003204	0.014343	-0.010071	-0.001678	0.006561	0.032043	0.014191	-0.032501	-0.009155	-0.023804	-0.000305	0.010681	-0.02594	-0.019989	-0.010071	0.06073	-0.17075	0.39566	-0.091095	-0.009613	0.007324	0.11246	-0.33035	0.22827	-0.018311	0.038147	0.027924	-0.5043	0.054626	0.000916	0.000153
58.794	0.002899	0.020447	0.029755	-0.00885	0.00473	0.006866	0.038757	0.001373	-0.033569	-0.025024	0.055542	-0.002289	0.056305	-0.066833	-0.053406	-0.002136	0.015106	-0.037537	1.1626	-0.09552	0.010529	0.029297	-0.1207	-0.08194	0.17136	-0.007324	0.039063	-0.006866	0.40329	0.074768	0.001221	-0.008545
58.795	0.00824	0.030518	0.028076	-0.00885	0	0.03067	0.046387	-0.000916	-0.038605	-0.004883	0.087585	-0.000458	0.012665	-0.059509	-0.092468	-0.00824	0.018921	0.069427	0.60989	0.072479	0.006866	-0.039673	-0.060577	-0.22629	-0.36972	0.007935	-0.071716	0.031281	2.0801	0.11215	-0.000305	-0.010376
58.796	0.000153	0.019531	0.046234	0.017548	-0.006256	0.039215	0.050201	0.003815	-0.037842	0.022583	0.080109	-0.006866	-0.050201	-0.037384	-0.035706	0.000763	0.036926	0.014038	0.34851	0.20187	0.022125	-0.12024	0.30777	-0.17532	-0.7074	0.018921	-0.16159	0.029449	1.2135	0.024719	-0.000458	-0.003357
58.797	-0.001984	0.006866	-0.05249	0.027618	-0.007019	0.044556	0.024567	0.00824	-0.044556	0.018158	-0.056458	-0.004578	-0.05127	-0.039063	0.055237	0.003357	0.050964	-0.063629	-0.19592	0.19928	0.066376	-0.13062	0.30991	-0.27634	-0.88135	0.015564	-0.10712	-0.002136	-0.22247	-0.12314	-0.000458	-0.003967
58.798	-0.012817	-0.014343	-0.07843	0.005493	-0.016174	0.054779	0.040894	0.003967	-0.032196	0.002441	-0.11749	-0.007629	0.019836	-0.048065	0.12772	-0.004425	0.054321	-0.014191	-0.7785	0.19196	0.037384	-0.12436	0.34866	-0.27054	-0.79956	0.005646	0.050049	-0.050964	-1.0051	-0.14572	-0.001068	-0.007935
58.799	-0.000916	-0.006409	-0.038147	0.006409	-0.016785	0.02655	0.034943	0.005798	-0.041809	-0.013733	0.18524	-0.012512	0.028992	0.009613	0.15045	0.012207	0.059814	0.19333	-0.37109	0.010529	-0.21347	-0.08255	0.36652	0.20554	-0.55161	0.002747	0.11414	-0.159	-0.94177	-0.021973	-0.001526	-0.009766
58.8	0.000458	0.020447	-0.023346	0.009918	-0.011139	0.030823	0.029144	0.016174	-0.027771	-0.044556	0.12802	-0.008087	0.024414	0.031738	0.032654	0.011749	0.03418	0.2121	-0.054474	-0.10513	-0.28122	-0.020752	0.41321	0.30212	-0.060425	0.007782	0.02655	0.047607	0.022736	-0.049744	0.001831	-0.010986
58.801	-0.000153	-0.002289	-0.016937	0.005035	-0.017548	0.023804	0.024261	0.001068	-0.027008	-0.032959	-0.05722	-0.009155	-0.018005	0.023193	-0.20935	0.004578	0.023804	0.25955	0.24567	-0.083313	-0.25253	-0.000458	0.3656	0.12451	0.22125	0.02243	-0.070496	0.081329	-0.02182	-0.29785	-0.006256	-0.012512
58.802	-0.002594	0.027618	0.002289	-0.005035	-0.015259	0.035095	0.027924	-0.00061	-0.024567	0.002899	0.0383	-0.005951	-0.070648	-0.008392	-0.16159	-0.000305	-0.031433	0.33691	0.31845	-0.061798	0.37872	0.015411	-0.020905	0.448	0.3125	0.026245	-0.0177	-0.14877	-1.1835	-0.32928	-0.00061	-0.016022
58.803	0.001221	0.031128	0	-0.0177	-0.004578	0.018158	0.019073	0.000458	-0.029297	0.001526	-0.038452	-0.009308	-0.049133	-0.025024	-0.096893	0.003357	-0.047913	0.33905	-0.34134	0.06012	0.21561	-0.008698	-0.29694	0.38055	0.35248	0.012817	0.10178	-0.15915	-1.4687	-0.40375	-0.001984	-0.010681
58.804	0.009766	0.011597	-0.007019	0.003662	-0.001678	0.007172	-0.001678	0.007019	-0.027466	0.008545	-0.016785	-0.005798	-0.024567	-0.064545	-0.12146	-0.008545	-0.00061	0.35233	-1.1731	0.12238	-0.11353	-0.016479	-0.31937	0.19226	0.18066	-0.002441	0.090485	0.11261	-0.52933	-0.88623	-0.002899	-0.018311
58.805	0.006714	0.012665	0.015869	0.00824	-0.000916	-0.008698	0.014343	-0.003357	-0.014343	0.001221	0.095215	-0.009308	-0.019226	-0.012817	0.067749	-0.003204	0.047455	0.30121	-0.9111	-0.053406	-0.038147	-0.11536	-0.29511	-0.16464	0.1506	-0.021667	-0.016327	-0.33035	-0.72617	-0.61554	0.000305	-0.010529
58.806	0.004272	0.018463	0.023193	0.010071	-0.000916	0.012054	0.014801	0.000916	-0.019531	-0.019073	0.008087	0.002899	0.014496	-0.010986	0.034637	-0.014954	0.11154	0.15091	0.21652	-0.25101	0.10468	-0.21454	0.010529	-0.79697	-0.032196	-0.015106	-0.12985	0.20538	-0.097198	0.54886	-0.00061	0
58.807	0.006866	0.01297	0.018311	0.023499	0.000153	-0.010834	0.012512	-0.00473	-0.02533	-0.041504	-0.061951	-0.006866	0.048218	0.004272	0.062256	0.027008	0.077362	-0.097504	0.54688	-0.2002	0.19898	-0.1297	-0.048981	-0.82474	-0.23727	-0.008392	-0.092773	0.18768	0.7515	0.75958	0.000763	-0.005951
58.808	0.002594	0.01236	0.029449	0.00885	0.000153	0.000153	0.021362	0.002289	-0.028534	-0.052032	-0.019684	0.001678	0.009918	0.018616	0.20264	0.02182	-0.006714	-0.23666	-0.23819	-0.13748	-0.045624	-0.00885	0.008392	-0.79193	-0.3508	-0.012817	-0.056915	0.093536	0.62775	0.89233	-0.001068	-0.002899
58.809	0.009766	0.04715	0.019836	0.00885	-0.001373	-0.018463	0.00946	-0.001221	-0.03067	-0.029449	0.032654	-0.003204	-0.004425	0.026093	-0.078278	0.000916	-0.053711	-0.25986	-0.10147	0.037537	-0.072937	0.05127	0.19302	-0.50949	-0.3157	-0.016174	-0.0737	0.19745	0.65857	0.31174	0.001221	-0.010071
58.81	0.007477	0.019226	0.041199	0.004883	-0.007782	-0.003204	0.018616	-0.002899	-0.031433	-0.026855	-0.039673	0.001221	0.035095	-0.03067	-0.16052	-0.006104	0.003357	-0.27771	0.4187	0.22247	0.003052	-0.050964	0.17288	0.74493	0.054016	-0.018463	-0.054321	0.13077	0.11627	-0.35339	-0.007782	-0.016632
58.811	0.006104	-0.021362	0.023346	0.002289	-0.00473	-0.00473	0.007324	0.002747	-0.029297	-0.005951	0.016022	-0.003967	0.009003	-0.095367	-0.032196	0.006104	0.020142	-0.3743	-0.53085	0.18494	-0.035706	-0.064087	0.014801	0.58685	0.043335	-0.025635	-0.055237	0.012665	-0.21637	-0.1471	-0.003967	-0.005646
58.812	0.008698	0.035706	0.025787	0.009613	0.001526	-0.011292	0.012817	-0.001068	-0.027161	0.00473	0.070038	-0.004883	-0.026093	-0.085754	-0.029602	0.002289	0.026245	-0.36636	-0.3685	0.13931	-0.002289	-0.001068	0.11993	0.17716	-0.065155	-0.003662	-0.058899	0.012207	0.16495	0.25726	-0.001221	0.000153
58.813	0.00824	-0.006561	0.025787	0.012207	-0.007629	0.000153	0.011597	0.003967	-0.028992	-0.001526	-0.0177	0.008087	-0.016937	-0.039063	-0.11017	-0.000153	0.001373	-0.37903	-0.46875	0.3389	0.058289	0.026855	-0.023041	-0.12421	0.075989	-0.011749	0.003357	0.006409	0.29724	-0.16632	-0.001984	-0.007172
58.814	0.010529	-0.010376	0.027313	0.025177	-0.000458	-0.007324	-0.002899	-0.000916	-0.034485	-0.027313	-0.063171	-0.005188	0.001984	-0.006561	-0.026245	0.008698	-0.026855	-0.29648	0.034332	0.30945	0.073242	-0.000763	-0.014191	-0.52185	0.16922	-0.037842	0.036163	-0.055084	0.54688	-0.005035	0.003967	-0.009613
58.815	0.007019	-0.005798	0.010986	0.021057	0.003662	0	0.003967	0.003662	-0.043182	-0.013123	-0.029297	-0.004578	-0.000763	-0.050964	0.10162	0.003662	-0.08316	-0.16037	-0.17471	0.076447	0.09552	0.027924	-0.06073	-0.87296	0.30716	-0.019989	0.010986	-0.001831	0.5101	0.15121	-0.00061	-0.00824
58.816	0.007324	0.004272	-0.006866	0.012665	-0.001373	0.031128	0.020599	0.00351	-0.039368	-0.019379	0.013733	-0.00412	-0.033417	-0.051117	0.18188	0.003815	-0.093689	-0.17639	-0.55634	-0.054932	0.10178	0.022888	-0.046234	-0.92087	0.068054	-0.003815	-0.079498	-0.020752	0.42053	0.27725	-0.000916	-0.016785
58.817	0.006256	-0.02182	-0.003662	0.011749	-0.003204	0.014038	0.008698	0.006104	-0.048676	-0.027771	-0.01358	-0.008087	-0.006561	-0.039673	0.25726	-0.003052	-0.072327	-0.020294	-0.61523	-0.070953	0.088654	0.013123	0.14542	-0.64148	-0.36316	0.003815	0.005188	-0.009155	0.27771	0.31891	0.000153	-0.007172
58.818	0.005188	0.010071	0.007172	0.014801	-0.014191	0.034027	0.003815	0.003967	-0.047455	-0.013733	-0.036163	-0.006714	-0.015411	-0.006104	0.11917	0.009003	-0.018311	0.057526	-0.67749	-0.000763	0.058289	0.003815	0.31113	-0.25223	-0.36255	-0.014648	0.12955	-0.026093	-1.032	0.51163	-0.000305	-0.010681
58.819	0.041962	0.03006	0.014801	0.036316	-0.00412	0.029755	0.004425	0.001373	-0.045319	-0.014343	-0.036774	-0.003204	-0.027313	-0.004425	-0.10269	-0.00824	-0.002747	0.14526	0.076752	0.008545	0.033417	-0.015564	0.23697	0.083466	-0.10605	-0.018005	0.000153	-0.017853	-0.75058	0.55756	0.002747	-0.014038
58.82	0.046844	-0.022736	-0.026093	0.016785	-0.006256	0.033875	-0.012207	0.001984	-0.044098	-0.014191	0.009613	0	-0.024109	0.000916	-0.068665	-0.012512	-0.001526	0.090637	-0.71838	0.03006	0.012207	-0.050507	0.014954	0.62454	0.10895	-0.014496	-0.023499	-0.00885	-0.85052	0.21469	0.002594	-0.015564
58.821	0.030518	0.011749	-0.014496	-0.011292	-0.008545	0.030518	-0.001526	-0.005493	-0.050964	-0.021057	0.007019	-0.001984	-0.03479	0.01358	-0.062561	0.000763	0.000153	0.028534	-1.3815	-0.053101	0.006409	-0.019531	-0.242	1.0959	0.56	-0.010223	-0.14557	0.001373	0.1593	-0.16617	-0.007629	-0.005035
58.822	0.019989	-0.009613	0.001984	-0.018311	-0.00412	0.035248	0.011902	-0.001221	-0.049438	-0.03479	0.019684	-0.006104	-0.0354	0.015717	-0.040894	-0.016937	0.022888	0.03479	-0.22964	-0.13489	0.003052	0.007935	-0.16357	0.77957	0.78278	0.001678	-0.23346	-0.11505	0.76157	-0.23819	-0.000916	-0.000916
